<svg id="eWFz3f1kldt1" xmlns="http://www.w3.org/2000/svg" xmlns:xlink="http://www.w3.org/1999/xlink" viewBox="0 0 32 32" shape-rendering="geometricPrecision" text-rendering="geometricPrecision" project-id="e3e53721ba5f40618f7ce352cca278c7" export-id="a14de46cbd65479fa5d2bb2b45b9a440" cached="false"><defs><filter id="eWFz3f1kldt3-filter" x="-150%" y="-150%" width="400%" height="400%"><feComponentTransfer id="eWFz3f1kldt3-filter-invert-0" result="result"><feFuncR id="eWFz3f1kldt3-filter-invert-0-R" type="table" tableValues="1 0"/><feFuncG id="eWFz3f1kldt3-filter-invert-0-G" type="table" tableValues="1 0"/><feFuncB id="eWFz3f1kldt3-filter-invert-0-B" type="table" tableValues="1 0"/></feComponentTransfer></filter></defs><path d="M0,8.42105C0,3.77023,3.77023,0,8.42105,0h15.15785C28.2298,0,32,3.77023,32,8.42105v15.15785C32,28.2298,28.2298,32,23.5789,32h-15.15785C3.77023,32,0,28.2298,0,23.5789L0,8.42105Z" fill="#465fff"/><g transform="translate(7.688287 8.000531)" filter="url(#eWFz3f1kldt3-filter)"><g transform="translate(1 0)"><path d="M8.264,10.32l3.52,5.48c.143.125.322.195.51.199.205.002.396-.074.531-.207.389-.581-.561-4.316-1.861-8.172l-2.7,2.7v0Z" fill="#434343" fill-rule="evenodd"/><path d="M14.613,0.42c-.584-.586-1.328-.525-1.828-.027L8.705,4.457c-2.437-.776-6.846-2.275-8.51-2.275-.232,0-.334.026-.369.037-.262.285-.268.722-.014,1.012l6.107,4-3.032,3.02c0,0-2.339-.482-2.681-.527-.477-.062-1.027.356-.002.879c1.197.609,2.599,1.317,2.599,1.317s.863,1.679,1.39,2.604c.671,1.119,1.065.576.985,0-.079-.574-.348-2.515-.348-2.515L7.714,9.017l2.829-2.819l4.026-4.011c.501-.498.626-1.183.044-1.767v0Z" fill="#434343" fill-rule="evenodd"/></g></g></svg>
